<svg xmlns="http://www.w3.org/2000/svg" width="18" height="18"><path fill="#AAA" fill-rule="evenodd" d="M11 16.866V16c0-1.103-.897-2-2-2s-2 .897-2 2v.866C3.607 16.4 1 14.77 1 13v-2.717C2.494 11.895 5.512 13 9 13c3.488 0 6.506-1.105 8-2.717V13c0 1.77-2.608 3.4-6 3.866M9 4c4.715 0 8 2.108 8 4s-3.285 4-8 4-8-2.108-8-4 3.285-4 8-4m-.5-4 2 1-1 .5v1.514c1.88.058 3.602.433 5 1.034V1l2 1-1 .5v2.048C17.045 5.445 18 6.66 18 8v5c0 2.574-3.5 4.693-8 4.97V16a1 1 0 0 0-2 0v1.97c-4.5-.277-8-2.396-8-4.97V8c0-1.34.955-2.555 2.5-3.452V1l2 1-1 .5v1.548c1.398-.6 3.121-.976 5-1.034V0zM9 5.5C6.238 5.5 4 6.619 4 8c0 .572.398 1.093 1.046 1.513l.167.103c.917.536 2.264.884 3.787.884 1.414 0 2.676-.3 3.583-.772l.203-.112.001-.001C13.533 9.179 14 8.619 14 8c0-1.381-2.239-2.5-5-2.5zm0 3c1.17 0 2.114.217 2.794.5-.683.283-1.627.5-2.794.5S6.89 9.283 6.206 9c.68-.283 1.625-.5 2.794-.5zm0-2c2.481 0 4 .971 4 1.5 0 .11-.08.241-.207.377C11.877 7.841 10.52 7.5 9 7.5s-2.877.341-3.793.877C5.08 8.241 5 8.11 5 8c0-.529 1.52-1.5 4-1.5z"/></svg>